<?xml version="1.0" standalone="no"?>
<!DOCTYPE svg PUBLIC "-//W3C//DTD SVG 20010904//EN"
 "http://www.w3.org/TR/2001/REC-SVG-20010904/DTD/svg10.dtd">
<svg version="1.0" xmlns="http://www.w3.org/2000/svg"
 width="1080.000000pt" height="1130.000000pt" viewBox="0 0 1080.000000 1130.000000"
 preserveAspectRatio="xMidYMid meet">

<g transform="translate(0.000000,1130.000000) scale(0.100000,-0.100000)"
fill="#000000" stroke="none">
<path d="M5688 9656 c-10 -7 -18 -18 -18 -25 0 -6 -4 -11 -9 -11 -6 0 -12 -60
-14 -137 -4 -151 -16 -200 -60 -236 -15 -12 -31 -34 -36 -49 -11 -31 -75 -83
-91 -73 -5 3 -10 13 -10 21 0 8 -4 22 -9 32 -5 9 -17 43 -27 74 -20 64 -39 78
-110 78 -50 0 -94 -32 -94 -69 0 -11 -4 -23 -10 -26 -5 -3 -10 -18 -10 -33 -1
-53 -59 -192 -97 -231 -13 -13 -23 -30 -23 -38 0 -18 -45 -63 -63 -63 -18 0
-67 -49 -67 -67 0 -7 -6 -16 -14 -19 -8 -3 -33 -43 -56 -90 -24 -46 -46 -84
-49 -84 -4 0 -16 7 -27 15 -10 8 -38 15 -60 15 -48 0 -94 -37 -94 -76 0 -12
-4 -25 -9 -28 -4 -3 -11 -26 -14 -51 -4 -24 -11 -54 -17 -65 -5 -11 -14 -29
-20 -40 -5 -11 -14 -28 -19 -37 -8 -16 -29 -68 -51 -128 -4 -11 -17 -40 -29
-63 -11 -24 -21 -49 -21 -54 0 -6 -11 -34 -24 -62 -34 -73 -67 -181 -77 -251
-4 -33 -12 -80 -16 -105 l-8 -45 -1015 -3 c-1091 -2 -1048 0 -1096 -53 -37
-41 -22 -128 33 -189 13 -14 23 -30 23 -37 0 -6 4 -13 8 -15 9 -3 102 -136
102 -144 0 -3 20 -33 45 -65 25 -33 45 -62 45 -65 0 -2 5 -10 10 -17 8 -9 95
-133 160 -227 80 -116 130 -192 130 -196 0 -3 11 -17 25 -32 14 -15 25 -32 25
-39 0 -6 4 -13 9 -15 7 -2 43 -54 96 -136 6 -9 18 -25 27 -36 10 -11 18 -23
18 -27 0 -4 6 -14 14 -22 12 -12 70 -95 101 -146 6 -9 29 -43 52 -76 23 -33
74 -107 114 -165 39 -58 98 -142 130 -188 33 -45 59 -86 59 -91 0 -4 9 -16 20
-26 11 -10 20 -24 20 -31 0 -7 3 -14 8 -16 4 -1 24 -28 44 -58 21 -30 51 -73
67 -95 17 -22 34 -47 38 -55 3 -8 9 -17 12 -20 11 -10 161 -236 161 -243 0 -4
-279 -7 -621 -7 -647 0 -644 0 -682 -43 -16 -19 -17 -75 -17 -870 l0 -849 32
-30 c30 -28 34 -29 107 -25 42 3 141 13 221 22 273 32 474 54 540 60 30 3 98
10 150 16 52 5 165 15 250 20 85 6 218 15 295 20 282 19 465 28 660 35 l201 6
27 -35 c15 -20 27 -40 27 -45 0 -6 3 -12 8 -14 10 -4 152 -207 152 -217 0 -4
9 -16 20 -26 11 -10 20 -24 20 -31 0 -7 3 -14 8 -16 4 -1 24 -28 44 -58 21
-30 51 -73 67 -95 17 -22 34 -47 38 -55 3 -8 9 -17 12 -20 7 -6 160 -231 176
-258 6 -9 13 -19 16 -22 5 -4 55 -78 94 -138 6 -9 20 -27 33 -41 12 -14 22
-31 22 -38 0 -7 4 -13 8 -13 4 0 25 -29 47 -65 22 -36 43 -65 48 -65 4 0 7 -5
7 -11 0 -9 42 -72 60 -89 3 -3 18 -25 35 -50 44 -68 66 -90 90 -90 11 0 26 -5
32 -11 9 -9 21 -7 50 6 47 22 52 28 84 90 15 28 41 77 59 110 18 33 63 119
100 190 61 119 89 172 185 350 18 33 61 114 95 180 35 66 77 145 93 175 27 49
52 97 167 319 l33 63 76 -6 c96 -8 280 -21 486 -35 88 -5 203 -15 255 -20 52
-6 122 -13 155 -17 33 -3 97 -10 143 -15 45 -5 119 -13 165 -18 45 -5 147 -17
227 -26 80 -9 179 -19 221 -22 75 -4 77 -4 108 27 l31 32 0 848 0 848 -35 31
-36 31 -455 0 -455 0 7 23 c4 12 23 51 42 87 19 36 59 112 90 170 30 58 66
125 80 150 13 25 60 115 105 200 44 85 87 166 95 180 9 14 43 77 75 140 33 63
73 140 89 170 17 30 54 100 83 155 29 55 74 141 100 190 27 50 69 131 95 180
26 50 56 106 67 125 11 19 48 91 83 160 36 69 67 127 70 130 3 3 20 34 38 70
18 36 57 112 87 170 69 131 72 167 19 216 l-35 34 -853 0 -852 0 -12 45 c-7
25 -12 59 -12 75 0 16 -8 44 -18 62 -10 18 -26 59 -36 90 -10 32 -22 60 -27
64 -5 3 -9 13 -9 23 0 20 -89 200 -133 268 -15 24 -27 47 -27 52 0 5 -3 11 -7
13 -5 2 -26 30 -48 62 -22 32 -50 73 -62 90 -12 17 -22 37 -22 44 -1 6 -8 12
-16 12 -9 0 -19 8 -22 18 -7 18 -127 142 -138 142 -4 0 -26 16 -48 36 -42 36
-43 36 -113 31 l-72 -5 -36 37 c-20 20 -36 42 -36 49 0 7 -4 12 -8 12 -5 0
-21 28 -36 63 -15 34 -32 70 -37 79 -5 10 -9 26 -9 36 0 10 -4 22 -8 28 -5 5
-14 34 -21 64 -8 30 -18 63 -22 72 -14 26 -75 39 -126 27 -35 -9 -45 -17 -55
-45 -15 -42 -22 -43 -38 -4 -14 33 -37 50 -69 50 -22 0 -51 49 -51 87 0 13 -4
31 -9 41 -16 31 -41 149 -41 191 0 43 -14 76 -40 98 -20 16 -110 16 -132 -1z
m229 -1099 c145 -83 218 -138 321 -246 311 -324 546 -850 687 -1534 20 -98 16
-127 -9 -72 -61 130 -274 445 -301 445 -2 0 4 -24 13 -52 15 -46 17 -94 15
-353 -3 -324 1 -357 52 -468 26 -57 79 -127 96 -127 5 0 1 17 -10 38 -58 114
-87 347 -59 474 l11 53 17 -115 c24 -154 53 -273 100 -396 58 -153 73 -273 56
-466 -8 -90 -21 -120 -31 -71 -17 81 -38 154 -50 170 -12 15 -13 -2 -8 -117 8
-196 -30 -379 -114 -543 -46 -92 -7 -64 84 60 71 96 152 254 188 368 75 237
74 527 -4 775 -11 35 -18 66 -16 68 2 2 19 -20 38 -49 113 -177 173 -379 181
-612 2 -67 5 -126 5 -132 2 -18 27 30 45 85 40 128 43 281 10 430 -28 122 -28
119 4 72 25 -37 52 -92 83 -167 38 -95 37 -233 -2 -380 -76 -278 -325 -584
-641 -788 -49 -31 -88 -59 -88 -61 0 -21 237 87 357 162 177 111 337 256 424
384 51 74 62 61 28 -34 -34 -97 -76 -175 -122 -225 -49 -53 -234 -179 -362
-245 -70 -37 -84 -47 -62 -48 60 0 320 86 446 149 l82 41 -18 -32 c-25 -42
-128 -147 -183 -184 -142 -97 -295 -153 -512 -188 -135 -22 -140 -21 -76 19
61 38 86 72 46 62 -13 -3 -57 -18 -98 -32 -41 -15 -114 -31 -165 -36 -49 -5
-115 -16 -145 -24 -215 -61 -315 -82 -410 -86 -102 -5 -244 25 -330 68 l-45
23 80 -6 c75 -5 248 7 360 25 127 21 385 89 385 101 0 3 -78 5 -172 5 -159 0
-309 15 -347 35 -9 5 16 13 60 20 287 47 532 165 709 339 115 114 173 207 216
346 28 92 25 322 -5 430 -30 108 -49 151 -131 300 -56 102 -67 123 -115 230
-75 167 -109 247 -185 444 -39 102 -79 199 -88 215 -55 99 -181 245 -313 361
-98 88 -292 222 -374 259 -22 10 -90 43 -151 72 -62 30 -120 54 -131 54 -34 0
-60 -29 -88 -97 -81 -199 -178 -369 -266 -463 -104 -112 -184 -268 -224 -437
-24 -101 -24 -101 -11 -112 9 -8 21 11 46 72 33 80 59 131 66 124 2 -2 -10
-41 -26 -88 -16 -47 -32 -109 -35 -139 -9 -73 -29 -139 -64 -210 -7 -13 -43
-127 -74 -235 -19 -63 -15 -404 5 -490 42 -178 61 -231 107 -299 50 -72 171
-186 171 -161 0 3 -16 28 -36 55 -43 61 -84 175 -84 237 l0 45 66 -71 c89 -96
217 -191 340 -251 89 -44 126 -57 249 -90 l30 -8 -29 -1 c-67 -2 -334 53 -388
80 -27 14 -58 11 -58 -5 0 -12 90 -62 160 -90 8 -3 -3 -4 -25 -1 -22 3 -92 12
-155 20 -63 8 -151 19 -195 26 -121 16 -215 19 -215 6 0 -32 210 -202 285
-232 18 -6 17 -8 -12 -19 -17 -6 -35 -14 -39 -19 -12 -12 -24 -8 -24 8 0 22
-80 93 -112 101 -62 13 -153 127 -182 227 -20 70 -30 147 -20 146 5 0 23 -19
39 -42 17 -23 39 -43 49 -45 16 -3 15 2 -8 41 -31 57 -62 156 -83 267 -12 62
-16 146 -17 315 0 270 8 319 85 535 83 236 111 333 134 475 32 202 39 232 76
350 45 146 102 300 168 460 l50 120 1 -70 c0 -76 19 -225 30 -238 4 -4 13 34
20 85 23 174 80 317 192 479 56 83 205 246 215 236 2 -3 -6 -22 -19 -44 -47
-75 -104 -221 -96 -245 2 -6 25 15 50 48 142 183 326 290 536 311 34 3 62 9
62 12 0 11 -15 27 -40 44 -45 31 5 19 67 -16z m-295 -1484 c21 -12 70 -34 110
-47 75 -26 99 -46 54 -46 -43 0 -149 -54 -180 -91 -36 -42 -66 -111 -66 -150
0 -41 15 -36 30 11 18 56 73 116 132 146 56 28 188 46 188 25 0 -6 15 -11 33
-11 62 0 59 -16 -7 -29 -86 -17 -155 -50 -199 -96 -54 -56 -50 -79 18 -104 98
-37 258 -26 353 23 53 27 45 0 -19 -68 -70 -75 -119 -96 -226 -96 -76 0 -140
23 -231 82 -64 41 -69 43 -143 43 l-78 -1 -7 50 c-3 28 -15 75 -26 106 -11 30
-22 66 -25 80 -5 24 -4 24 30 -9 20 -19 47 -57 60 -85 l24 -50 12 54 c22 95
36 116 88 134 26 9 57 16 69 16 30 0 38 14 17 31 -19 16 -73 98 -73 112 0 9 2
7 62 -30z m252 -338 c3 -9 0 -15 -9 -15 -16 0 -27 14 -18 24 10 10 21 7 27 -9z
m167 -1062 c3 -118 -3 -198 -15 -205 -27 -18 -129 -31 -231 -31 -117 1 -207
18 -279 55 -77 40 -73 43 64 56 187 18 328 72 409 156 19 20 39 36 43 36 4 0
9 -30 9 -67z m-1343 -442 c219 -61 700 -144 915 -157 59 -4 107 -11 107 -15 0
-13 -378 -11 -479 2 -160 20 -347 59 -426 89 -11 5 -40 16 -65 25 -59 22 -170
76 -170 82 0 6 16 3 118 -26z m1533 -30 c-20 -36 -150 -148 -210 -179 -80 -43
-131 -61 -226 -78 -69 -12 -196 -19 -140 -8 113 24 235 65 307 103 58 31 75
61 36 61 -13 1 16 16 64 34 49 18 105 45 125 59 46 31 57 33 44 8z m-1776 -90
c40 -25 49 -28 75 -18 16 6 32 8 36 5 10 -11 -6 -28 -25 -28 -10 0 -26 -9 -36
-20 -19 -21 -60 -27 -70 -10 -11 18 -25 11 -25 -13 0 -13 -3 -26 -6 -29 -6 -7
-73 18 -87 32 -6 5 72 101 90 109 1 1 23 -12 48 -28z m130 -261 c3 -5 -3 -10
-14 -10 -11 0 -23 5 -26 10 -3 6 3 10 14 10 11 0 23 -4 26 -10z m225 -60 c0
-5 -6 -10 -14 -10 -8 0 -18 5 -21 10 -3 6 3 10 14 10 12 0 21 -4 21 -10z m230
-60 c0 -13 -20 -13 -40 0 -12 8 -9 10 13 10 15 0 27 -4 27 -10z m225 -60 c3
-5 -3 -10 -14 -10 -12 0 -21 5 -21 10 0 6 6 10 14 10 8 0 18 -4 21 -10z"/>
</g>
</svg>
